<?xml version="1.0" standalone="no"?>
<!DOCTYPE svg PUBLIC "-//W3C//DTD SVG 20010904//EN"
 "http://www.w3.org/TR/2001/REC-SVG-20010904/DTD/svg10.dtd">
<svg version="1.0" xmlns="http://www.w3.org/2000/svg"
 width="512.000000pt" height="512.000000pt" viewBox="0 0 512.000000 512.000000"
 preserveAspectRatio="xMidYMid meet">

<g transform="translate(0.000000,512.000000) scale(0.100000,-0.100000)"
 stroke="none">
<path d="M2325 5049 c-585 -60 -1113 -310 -1528 -724 -319 -317 -549 -722
-657 -1154 -119 -478 -98 -963 61 -1430 50 -145 177 -406 259 -530 225 -341
491 -598 832 -802 404 -242 872 -362 1348 -346 656 22 1251 283 1706 749 349
357 572 777 669 1263 34 170 45 289 45 487 0 664 -243 1260 -710 1742 -381
392 -872 645 -1415 727 -151 23 -472 33 -610 18z m633 -1306 c28 -71 264 -660
525 -1310 l475 -1183 -398 0 -398 0 -43 128 c-23 70 -55 164 -71 210 l-30 82
-466 -2 -467 -3 -70 -207 -70 -208 -389 0 c-306 0 -387 3 -383 12 3 7 233 593
512 1303 279 710 509 1293 512 1298 2 4 163 7 357 7 l353 0 51 -127z"/>
<path d="M2540 3019 c-16 -38 -270 -763 -270 -771 0 -4 128 -8 285 -8 157 0
285 1 285 3 0 7 -282 792 -285 796 -3 2 -9 -7 -15 -20z"/>
</g>
</svg>
