<svg aria-hidden="true" style="position: absolute; width: 0; height: 0; overflow: hidden;" version="1.1" xmlns="http://www.w3.org/2000/svg" xmlns:xlink="http://www.w3.org/1999/xlink">
<defs>
<symbol id="icon-menu" viewBox="0 0 20 20">
<path d="M0 3h20v2h-20v-2zM0 9h20v2h-20v-2zM0 15h20v2h-20v-2z"></path>
</symbol>
<symbol id="icon-mood-white" viewBox="0 0 20 20">
<path d="M10 20c-5.523 0-10-4.477-10-10s4.477-10 10-10v0c5.523 0 10 4.477 10 10s-4.477 10-10 10v0zM10 18c4.418 0 8-3.582 8-8s-3.582-8-8-8v0c-4.418 0-8 3.582-8 8s3.582 8 8 8v0zM6.5 9c-0.828 0-1.5-0.672-1.5-1.5s0.672-1.5 1.5-1.5v0c0.828 0 1.5 0.672 1.5 1.5s-0.672 1.5-1.5 1.5v0zM13.5 9c-0.828 0-1.5-0.672-1.5-1.5s0.672-1.5 1.5-1.5v0c0.828 0 1.5 0.672 1.5 1.5s-0.672 1.5-1.5 1.5v0zM15.66 12c-0.846 2.355-3.060 4.009-5.66 4.009s-4.814-1.654-5.647-3.967l-0.013-0.042h11.32z"></path>
</symbol>
<symbol id="icon-mood-black" viewBox="0 0 20 20">
<path d="M10 20c-5.523 0-10-4.477-10-10s4.477-10 10-10v0c5.523 0 10 4.477 10 10s-4.477 10-10 10v0zM6.5 9c0.828 0 1.5-0.672 1.5-1.5s-0.672-1.5-1.5-1.5v0c-0.828 0-1.5 0.672-1.5 1.5s0.672 1.5 1.5 1.5v0zM13.5 9c0.828 0 1.5-0.672 1.5-1.5s-0.672-1.5-1.5-1.5v0c-0.828 0-1.5 0.672-1.5 1.5s0.672 1.5 1.5 1.5v0zM15.66 12h-11.32c0.846 2.355 3.060 4.009 5.66 4.009s4.814-1.654 5.647-3.967l0.013-0.042z"></path>
</symbol>
<symbol id="icon-instagram" viewBox="0 0 32 32">
<path d="M16 2.881c4.275 0 4.781 0.019 6.462 0.094 1.563 0.069 2.406 0.331 2.969 0.55 0.744 0.288 1.281 0.638 1.837 1.194 0.563 0.563 0.906 1.094 1.2 1.838 0.219 0.563 0.481 1.412 0.55 2.969 0.075 1.688 0.094 2.194 0.094 6.463s-0.019 4.781-0.094 6.463c-0.069 1.563-0.331 2.406-0.55 2.969-0.288 0.744-0.637 1.281-1.194 1.837-0.563 0.563-1.094 0.906-1.837 1.2-0.563 0.219-1.413 0.481-2.969 0.55-1.688 0.075-2.194 0.094-6.463 0.094s-4.781-0.019-6.463-0.094c-1.563-0.069-2.406-0.331-2.969-0.55-0.744-0.288-1.281-0.637-1.838-1.194-0.563-0.563-0.906-1.094-1.2-1.837-0.219-0.563-0.481-1.413-0.55-2.969-0.075-1.688-0.094-2.194-0.094-6.463s0.019-4.781 0.094-6.463c0.069-1.563 0.331-2.406 0.55-2.969 0.288-0.744 0.638-1.281 1.194-1.838 0.563-0.563 1.094-0.906 1.838-1.2 0.563-0.219 1.412-0.481 2.969-0.55 1.681-0.075 2.188-0.094 6.463-0.094zM16 0c-4.344 0-4.887 0.019-6.594 0.094-1.7 0.075-2.869 0.35-3.881 0.744-1.056 0.412-1.95 0.956-2.837 1.85-0.894 0.888-1.438 1.781-1.85 2.831-0.394 1.019-0.669 2.181-0.744 3.881-0.075 1.713-0.094 2.256-0.094 6.6s0.019 4.887 0.094 6.594c0.075 1.7 0.35 2.869 0.744 3.881 0.413 1.056 0.956 1.95 1.85 2.837 0.887 0.887 1.781 1.438 2.831 1.844 1.019 0.394 2.181 0.669 3.881 0.744 1.706 0.075 2.25 0.094 6.594 0.094s4.888-0.019 6.594-0.094c1.7-0.075 2.869-0.35 3.881-0.744 1.050-0.406 1.944-0.956 2.831-1.844s1.438-1.781 1.844-2.831c0.394-1.019 0.669-2.181 0.744-3.881 0.075-1.706 0.094-2.25 0.094-6.594s-0.019-4.887-0.094-6.594c-0.075-1.7-0.35-2.869-0.744-3.881-0.394-1.063-0.938-1.956-1.831-2.844-0.887-0.887-1.781-1.438-2.831-1.844-1.019-0.394-2.181-0.669-3.881-0.744-1.712-0.081-2.256-0.1-6.6-0.1v0z"></path>
<path d="M16 7.781c-4.537 0-8.219 3.681-8.219 8.219s3.681 8.219 8.219 8.219 8.219-3.681 8.219-8.219c0-4.537-3.681-8.219-8.219-8.219zM16 21.331c-2.944 0-5.331-2.387-5.331-5.331s2.387-5.331 5.331-5.331c2.944 0 5.331 2.387 5.331 5.331s-2.387 5.331-5.331 5.331z"></path>
<path d="M26.462 7.456c0 1.060-0.859 1.919-1.919 1.919s-1.919-0.859-1.919-1.919c0-1.060 0.859-1.919 1.919-1.919s1.919 0.859 1.919 1.919z"></path>
</symbol>
<symbol id="icon-windows" viewBox="0 0 32 32">
<path d="M0.011 16l-0.011-9.752 12-1.63v11.382zM14 4.328l15.996-2.328v14h-15.996zM30 18l-0.004 14-15.996-2.25v-11.75zM12 29.495l-11.99-1.644-0.001-9.851h11.991z"></path>
</symbol>
<symbol id="icon-arrow-up" viewBox="0 0 20 20">
<path d="M9 3.828l-6.071 6.071-1.414-1.414 8.485-8.485 8.485 8.485-1.414 1.414-6.071-6.071v16.172h-2v-16.172z"></path>
</symbol>
<symbol id="icon-arrow-down" viewBox="0 0 20 20">
<path d="M9 16.172l-6.071-6.071-1.414 1.414 8.485 8.485 8.485-8.485-1.414-1.414-6.071 6.071v-16.172h-2z"></path>
</symbol>
<symbol id="icon-micro" viewBox="0 0 32 32">
<path d="M16 0c-8.823 0-16 7.177-16 16s7.177 16 16 16 16-7.177 16-16-7.177-16-16-16zM13.333 9.333c0-1.473 1.193-2.667 2.667-2.667s2.667 1.193 2.667 2.667v6.667c0 1.473-1.193 2.667-2.667 2.667s-2.667-1.193-2.667-2.667v-6.667zM17.333 23.888v1.445c0 0.736-0.596 1.333-1.333 1.333s-1.333-0.597-1.333-1.333v-1.445c-3.779-0.636-6.667-3.931-6.667-7.888 0-0.736 0.596-1.333 1.333-1.333s1.333 0.597 1.333 1.333c0 2.941 2.392 5.333 5.333 5.333s5.333-2.392 5.333-5.333c0-0.736 0.596-1.333 1.333-1.333s1.333 0.597 1.333 1.333c0 3.957-2.888 7.252-6.667 7.888z"></path>
</symbol>
<symbol id="icon-paper-plane" viewBox="0 0 32 32">
<path d="M7.361 26.533h7.096l4.692 4.687c0.492 0.494 1.172 0.8 1.924 0.8 0 0 0 0 0 0v0c0.248-0 0.488-0.033 0.717-0.094l-0.020 0.004c0.94-0.243 1.67-0.956 1.934-1.866l0.005-0.019 8.276-28.145z"></path>
<path d="M5.449 24.667l24.647-24.651-28.125 8.295c-1.154 0.336-1.984 1.384-1.984 2.627 0 0.755 0.307 1.439 0.802 1.933l4.66 4.656z"></path>
</symbol>
<symbol id="icon-arrow-left" viewBox="0 0 32 32">
<path d="M12.586 27.414l-10-10c-0.781-0.781-0.781-2.047 0-2.828l10-10c0.781-0.781 2.047-0.781 2.828 0s0.781 2.047 0 2.828l-6.586 6.586h19.172c1.105 0 2 0.895 2 2s-0.895 2-2 2h-19.172l6.586 6.586c0.39 0.39 0.586 0.902 0.586 1.414s-0.195 1.024-0.586 1.414c-0.781 0.781-2.047 0.781-2.828 0z"></path>
</symbol>
<symbol id="icon-lock-open" viewBox="0 0 20 20">
<path d="M4 8v-2c0-3.314 2.686-6 6-6s6 2.686 6 6v0h-3v2h4c1.105 0 2 0.895 2 2v0 8c0 1.105-0.895 2-2 2v0h-14c-1.105 0-2-0.895-2-2v0-8c0-1.1 0.9-2 2-2h1zM9 14.73v2.27h2v-2.27c0.602-0.352 1-0.996 1-1.732 0-1.105-0.895-2-2-2s-2 0.895-2 2c0 0.736 0.398 1.38 0.991 1.727l0.009 0.005zM7 6v2h6v-2c0-1.657-1.343-3-3-3s-3 1.343-3 3v0z"></path>
</symbol>
<symbol id="icon-lock-closed" viewBox="0 0 20 20">
<path d="M4 8v-2c0-3.314 2.686-6 6-6s6 2.686 6 6v0 2h1c1.105 0 2 0.895 2 2v0 8c0 1.105-0.895 2-2 2v0h-14c-1.105 0-2-0.895-2-2v0-8c0-1.1 0.9-2 2-2h1zM9 14.73v2.27h2v-2.27c0.602-0.352 1-0.996 1-1.732 0-1.105-0.895-2-2-2s-2 0.895-2 2c0 0.736 0.398 1.38 0.991 1.727l0.009 0.005zM7 6v2h6v-2c0-1.657-1.343-3-3-3s-3 1.343-3 3v0z"></path>
</symbol>
<symbol id="icon-close" viewBox="0 0 20 20">
<path d="M10 8.586l-7.071-7.071-1.414 1.414 7.071 7.071-7.071 7.071 1.414 1.414 7.071-7.071 7.071 7.071 1.414-1.414-7.071-7.071 7.071-7.071-1.414-1.414-7.071 7.071z"></path>
</symbol>
<symbol id="icon-user-add" viewBox="0 0 20 20">
<path d="M2 6h-2v2h2v2h2v-2h2v-2h-2v-2h-2v2zM9 6c0-1.657 1.343-3 3-3s3 1.343 3 3v0 2c0 1.657-1.343 3-3 3s-3-1.343-3-3v0-2zM20 15.14c-2.287-1.345-5.038-2.14-7.975-2.14-0.009 0-0.018 0-0.026 0h0.001c-2.91 0-5.65 0.78-8 2.14v2.86h16v-2.86z"></path>
</symbol>
<symbol id="icon-user" viewBox="0 0 20 20">
<path d="M10 20c-5.523 0-10-4.477-10-10s4.477-10 10-10v0c5.523 0 10 4.477 10 10s-4.477 10-10 10v0zM7 6v2c0 1.657 1.343 3 3 3s3-1.343 3-3v0-2c0-1.657-1.343-3-3-3s-3 1.343-3 3v0zM3.35 14.44c1.456 2.155 3.89 3.553 6.65 3.553s5.194-1.398 6.632-3.525l0.018-0.028c-1.951-0.918-4.238-1.453-6.65-1.453s-4.699 0.536-6.748 1.495l0.098-0.041z"></path>
</symbol>
<symbol id="icon-home" viewBox="0 0 32 32">
<path stroke-linejoin="round" stroke-linecap="round" stroke-miterlimit="10" stroke-width="2" d="M13.3 11.9l2.7-2.9 7.3 8h4.7l-12-13-12 13h4v11h16v-8"></path>
</symbol>
<symbol id="icon-sidebar-right" viewBox="0 0 32 32">
<path d="M10.413 2.667c-1.987 0-3.64 0.48-4.907 1.4-0.56 0.387-1.053 0.88-1.44 1.44-0.92 1.267-1.4 2.92-1.4 4.907v11.173c0 4.853 2.893 7.747 7.747 7.747h9.96v-26.667h-9.96zM16.16 16.707l-3.413 3.413c-0.2 0.2-0.453 0.293-0.707 0.293s-0.507-0.093-0.707-0.293c-0.387-0.387-0.387-1.027 0-1.413l2.693-2.707-2.693-2.707c-0.4-0.387-0.4-1.027 0-1.413s1.027-0.387 1.413 0l3.413 3.413c0.387 0.387 0.387 1.027 0 1.413z"></path>
<path d="M22.372 2.708v26.6c1.64-0.107 3.027-0.573 4.12-1.373 0.56-0.387 1.053-0.88 1.44-1.44 0.92-1.267 1.4-2.92 1.4-4.907v-11.173c0-4.587-2.587-7.427-6.96-7.707z"></path>
</symbol>
<symbol id="icon-sidebar-left" fill="ffffff" viewBox="0 0 32 32">
<path d="M2.667 10.415v11.173c0 1.987 0.48 3.64 1.4 4.907 0.387 0.56 0.88 1.053 1.44 1.44 1.093 0.8 2.48 1.267 4.12 1.373v-26.6c-4.373 0.28-6.96 3.12-6.96 7.707z"></path>
<path d="M27.934 5.507c-0.387-0.56-0.88-1.053-1.44-1.44-1.267-0.92-2.92-1.4-4.907-1.4h-9.96v26.667h9.96c4.853 0 7.747-2.893 7.747-7.747v-11.173c0-1.987-0.48-3.64-1.4-4.907zM20.668 18.707c0.387 0.387 0.387 1.027 0 1.413-0.2 0.2-0.453 0.293-0.707 0.293s-0.507-0.093-0.707-0.293l-3.413-3.413c-0.387-0.387-0.387-1.027 0-1.413l3.413-3.413c0.387-0.387 1.027-0.387 1.413 0s0.387 1.027 0 1.413l-2.693 2.707 2.693 2.707z"></path>
</symbol>
</defs>
</svg>
